<svg enable-background="new 0 0 807.6 1167.2" height="380.172658" viewBox="0 0 807.6 1167.2" width="263.03838" xmlns="http://www.w3.org/2000/svg" xmlns:xlink="http://www.w3.org/1999/xlink"><clipPath id="a"><path d="m606.4 481.2c-.1 0-.3 0-.4 0 0 0 0 0-.1 0s-.3 0-.4 0c-17.8.3-37.7 8.6-59.9 29-19.7 18.1-41 39.2-57.4 59.9l1.2 1.8c7.5 10.3 17 18.4 27.7 24.1 0 0 .1 0 .1.1.1.1.3.1.4.2.1 0 .1.1.2.1.1.1.2.1.3.1.1.1.2.1.4.2.9.5 1.8.9 2.7 1.3 11.3 5.3 23.8 8.1 36.3 8.1h.6c1.7 0 3.4-.1 5.1-.2 8.7-.6 17.4-2.4 25.7-5.7 1.4-.6 2.9-1.2 4.3-1.8.3-.1.6-.3.8-.4.1 0 .1-.1.2-.1.1-.1.2-.1.3-.2s.2-.1.3-.2.2-.1.3-.1c.2-.1.3-.2.5-.2.1 0 .1-.1.2-.1.2-.1.3-.2.5-.3.1 0 .1-.1.2-.1.2-.1.3-.2.4-.2s.1-.1.2-.1c.2-.1.4-.2.6-.3.1 0 .1-.1.1-.1.2-.1.3-.2.5-.3.1 0 .1-.1.2-.1.1-.1.3-.2.4-.2s.1-.1.2-.1l.6-.3c.1 0 .1-.1.2-.1.1-.1.3-.2.4-.3s.2-.1.2-.1c.1-.1.3-.2.4-.2s.1-.1.2-.1c.2-.1.4-.2.6-.3.1 0 .2-.1.2-.1.1-.1.3-.2.4-.2.1-.1.2-.1.3-.2s.3-.2.4-.3c.1 0 .1-.1.2-.1.2-.1.4-.2.6-.4.1-.1.1-.1.2-.1.1-.1.3-.2.4-.3s.1-.1.2-.1c.2-.1.4-.3.6-.4 4.7-3.2 9-6.8 12.8-10.7.2-.2.3-.4.5-.5 0 0 .1-.1.1-.1.2-.2.3-.4.5-.5.2-.2.3-.3.5-.5.1-.1.1-.2.2-.2.1-.1.2-.2.3-.3s.2-.2.3-.3.1-.2.2-.2c.2-.2.4-.4.6-.7 0 0 0 0 .1-.1s.2-.3.3-.4c0-.1.1-.1.1-.2.1-.1.2-.3.3-.4 0 0 .1-.1.1-.1.3-.4.7-.8 1-1.2 0-.1.1-.1.1-.2l.3-.3c.1-.1.1-.2.2-.3s.2-.2.2-.3c.1-.2.3-.3.4-.5.1-.1.2-.3.3-.4 8.8-11.6 14.1-25.2 15.6-39.3 0-.1 0-.1 0-.2s0-.2 0-.3v-.1c0-.1 0-.1 0-.2s0-.1 0-.2 0-.1 0-.1c.1-.6.1-1.1.1-1.7.1-1.5.2-3 .2-4.5 0-.1 0-.2 0-.3v-1.1c0-3.6-.3-7.3-.9-10.8-1.3-8.9-4.2-17.6-8.7-25.8v-.1c-.2-.4-.4-.7-.6-1.1 0 0 0-.1-.1-.1-.1-.2-.2-.3-.3-.5 0 0 0-.1-.1-.1-.1-.2-.2-.4-.3-.5-6.8-2.9-14-4.7-21.5-5 0 0 0 0-.1 0-.2 0-.4 0-.6 0-.1 0-.2 0-.2 0-.2 0-.3 0-.4 0s-.3 0-.4 0-.2 0-.4 0c.8-.1.6-.1.5-.1z"/></clipPath><linearGradient id="b" gradientTransform="matrix(-11.2846 -12.9328 -12.9328 11.2846 10735.4502 -11920.7852)" gradientUnits="userSpaceOnUse" x1="-159.6445" x2="-146.9408" y1="923.935" y2="923.935"><stop offset="0" stop-color="#fff"/><stop offset=".1809" stop-color="#ecf0f7"/><stop offset=".5458" stop-color="#bbc9e1"/><stop offset=".7811" stop-color="#98aed2"/><stop offset="1" stop-color="#98aed2"/></linearGradient><path d="m408 1166.3c-91.2 0-177.3-10.4-256-30.8-55.5-14.4-89.8-29.6-99.8-34.4-32.5-12.4-51.2-36.4-51.2-65.9l.9-912.7c0-29.4 18.6-53.5 51.1-66.1 22.1-9.8 137.4-55.5 347-55.5 213.3 0 339.6 49.2 354.8 55.5 32.9 12.3 51.8 36.4 51.8 66.1l.1 912.7c0 29.2-18.4 53.2-50.4 65.9-23.2 11.7-140.3 65.2-348.3 65.2" fill="#fff"/><path d="m408 1166.3v.9c-91.3 0-177.5-10.4-256.3-30.9-55.5-14.4-89.9-29.6-100-34.4l.4-.9-.3.9c-32.8-12.5-51.8-36.8-51.8-66.7l.9-912.7c0-29.8 19-54.3 51.7-67l.3.9-.4-.9c22.4-9.8 137.8-55.5 347.5-55.5 213.4 0 339.9 49.3 355.1 55.5l-.4.9.3-.9c33.2 12.4 52.4 36.9 52.4 67l.1 912.7c0 29.7-18.7 54-51 66.8l-.3-.9.4.8c-23.3 11.8-140.4 65.3-348.7 65.3v-.9-.9c207.9 0 324.8-53.4 347.8-65.1 31.8-12.7 49.8-36.2 49.8-65v-912.7c0-29.2-18.5-52.9-51.2-65.2-14.9-6.3-141.2-55.5-354.3-55.5-209.5 0-324.6 45.6-346.7 55.3-32.3 12.6-50.5 36.3-50.5 65.3l-.9 912.7c0 29.1 18.3 52.6 50.6 65 10 4.7 44.3 19.9 99.7 34.3 78.6 20.4 164.7 30.8 255.8 30.8z" fill="#a5a6aa"/><path d="m27.2 1005.2c0 18.5 12.5 33.3 35.2 41.7 1.1.4 125.8 63.2 345.6 63.2 222.4 0 336.4-62.5 337.5-62.9 22.5-8.6 34.9-23.5 34.9-41.9v-882.7c0-18.5-12.5-33.3-35.1-41.7-1.1-.4-125.7-53.7-345.2-53.7-222.1 0-336 53-337.1 53.4-22.5 8.6-34.9 23.5-34.9 41.9z" fill="#008740"/><path d="m767.9 1001.3c0 14.4-7.8 24.7-24 31.4-1.1.5-125.8 65-339.3 65.9h-3.1-3.1c-213.5-1-334.8-65.9-335.9-66.4-16.1-6.7-23.9-17-23.9-31.4l1.2-876.7c0-14.2 8.1-24.9 24.1-31.8 5-2.1 125.3-54.4 337.4-54.5h.2.2c212.2.1 337.2 52.4 342.2 54.4 16 6.9 24.1 17.6 24.1 31.8z" fill="#fff"/><path d="m287.1 1116.8-2.7 26.8s-81.9-7.1-164.1-32c-89.7-27.2-93.1-46.4-93.1-46.4v-30.4s10.1 18.7 38.3 30.1c23.4 9.5 91.5 37.5 221.6 51.9" fill="#008740"/><path d="m521.2 1118.1 2.7 26.8s81.8-7.1 164.1-32c89.7-27.2 93.1-46.4 93.1-46.4v-30.4s-10.1 18.7-38.3 30.1c-23.4 9.5-91.5 37.5-221.6 51.9" fill="#e42332"/><g fill="#008d4c"><path d="m228.8 712.6h21.6c.8 6.2 3.2 10.5 7.1 13 4.1 2.9 9.8 4.3 17 4.3 6.4 0 11.2-1.1 14.5-3.4s4.9-5.6 4.9-9.9c0-6.6-9.2-11.9-27.8-16l-.6-.3-2.5-.6c-10.5-2.2-17.5-4.6-21-7.1-4.1-2.3-7-5.6-8.6-9.9-2.1-3.7-3.1-8.4-3.1-14.2 0-10.1 3.5-18 10.5-23.7 7-5.6 17.2-8.3 30.5-8.3 12.5 0 22.2 2.9 29 8.6 7 6.4 10.7 14.7 11.1 25h-12.3c-4.7 0-8.1-2.2-10.2-6.5-1-2.1-2.5-3.8-4.3-5.2-3.7-2.7-8.8-4-15.1-4-6.2 0-10.6 1.1-13.3 3.4-3.1 2.3-4.6 5.5-4.6 9.6 0 5.6 6 9.7 17.9 12.3 3.5 1 6.1 1.7 7.7 1.9 3.7 1.2 6.9 2.2 9.7 2.9s5 1.3 6.6 1.7c2.9 1.2 5.8 2.5 8.6 3.7 4.1 2.5 7.3 5.7 9.6 9.6 2.2 4.3 3.4 9 3.4 14.2 0 11.1-3.7 19.7-11.1 25.9-7.4 5.8-17.9 8.6-31.5 8.6-14 0-24.5-3-31.5-8.9-7.4-6.1-11.6-15-12.2-26.7"/><path d="m381.8 720.3h15.4c-2.3 8.6-6.6 15.2-12.9 19.7-6.4 4.7-14.4 7.1-24.1 7.1-11.7 0-20.9-3.8-27.5-11.4-6.6-7.4-9.9-18-9.9-31.8 0-13.2 3.2-23.5 9.6-30.8 6.6-7.6 15.7-11.4 27.5-11.4 12.3 0 21.9 3.7 28.7 11.1 6.6 7.6 9.9 18.2 9.9 31.8v2.1 1.2l-.3 2.1h-53.4c.2 6.4 1.7 11.1 4.6 14.2 2.7 3.3 6.7 4.9 12 4.9 3.5 0 6.5-.7 8.9-2.2l1.7-1.1 1.7-1.7c.2-.6 1-1.4 2.3-2.5 1.4-.8 3.3-1.3 5.8-1.3m-37-24h31.5c-.4-5.6-1.9-9.7-4.3-12.3-2.7-2.9-6.5-4.3-11.4-4.3-4.5 0-8.2 1.4-11.1 4.3-3 2.8-4.5 6.9-4.7 12.3"/><path d="m407.1 745.6v-39.8c0-8 1.2-14.8 3.5-20.2 2.4-5.4 5.6-9.8 9.7-13.1 3.9-3.1 8.5-5.3 13.7-6.8 5.2-1.4 10.6-2.2 16.2-2.2h1.6 1.5v21.9h-7.1c-6 0-10.4 1.4-13.3 4.3s-4.3 7.4-4.3 13.6v42.3z"/><path d="m462.6 639.5h11.1c2.9 0 5.3 1 7.4 3.1 2 2 3.1 4.5 3.1 7.4v6.5h-21.6zm0 24.1h11.1c2.9 0 5.3 1 7.4 3.1 2 2.1 3.1 4.5 3.1 7.4v71.6h-21.6z"/><path d="m553.2 720.3h15.4c-2.3 8.6-6.6 15.2-13 19.7-6.4 4.7-14.4 7.1-24 7.1-11.7 0-20.9-3.8-27.5-11.4-6.6-7.4-9.9-18-9.9-31.8 0-13.2 3.2-23.5 9.6-30.8 6.6-7.6 15.7-11.4 27.5-11.4 12.3 0 21.9 3.7 28.7 11.1 6.6 7.6 9.9 18.2 9.9 31.8v2.1 1.2l-.3 2.1h-53.4c.2 6.4 1.7 11.1 4.6 14.2 2.7 3.3 6.7 4.9 12 4.9 3.5 0 6.5-.7 8.9-2.2l1.7-1.1 1.7-1.7c.2-.6 1-1.4 2.3-2.5 1.4-.8 3.3-1.3 5.8-1.3m-37-24h31.5c-.4-5.6-1.8-9.7-4.3-12.3-2.7-2.9-6.5-4.3-11.4-4.3-4.5 0-8.2 1.4-11.1 4.3-3 2.8-4.5 6.9-4.7 12.3"/></g><path d="m223.7 1011.5c36 0 59.9-22.5 65.3-57.5l24.6-158.5-137.9-.1c-36 0-59.9 22.5-65.3 57.5l-24.6 158.5z" fill="#7cb93f"/><path d="m132.3 839.4h91.5c38.6 0 54.3 9.6 56.5 28 2 16.1-8 26.6-28.9 30.7h-.2v.4c16.8 2.5 28.6 13.8 30.1 25.5 3.8 30.7-29.2 42.9-68.1 42.9h-102.2zm37.3 97.1h35.2c9.7 0 22.9-2.5 21.6-12.9-1.2-9.5-11.1-10.9-22.5-10.9h-30.2zm7.9-47.5h30.9c8.7 0 19.4-2.3 18.5-10.2-.9-7.7-8.3-9.1-18.1-9.1h-28.2z" fill="#fff"/><path d="m425.9 1011.5c36 0 59.9-22.5 65.3-57.5l24.6-158.5-137.8-.1c-36 0-59.9 22.5-65.3 57.5l-24.6 158.5z" fill="#3dab50"/><path d="m327.3 839.4h53.6l-6.9 41.9.5.4 54.4-42.3h69.8l-76.9 52.5 59.2 75h-60.2l-37.8-49.5-16.9 12.2-6 37.3h-53.6z" fill="#fff"/><path d="m628.2 1011.5c36 0 59.9-22.5 65.3-57.5l24.6-158.5-137.9-.1c-36 0-59.9 22.5-65.3 57.5l-24.6 158.5z" fill="#008d4c"/><path d="m579.6 872h-49.3l5.4-32.7h153.6l-5.4 32.7h-49.4l-15.8 94.9h-54.9z" fill="#fff"/><path d="m513.4 198.6c-16.9-.5-34.3-14.1-43.2-33.8-6.4-14.3-7.4-29.8-2.4-41.6 3.3-8.1 9-13.8 16.5-16.6 3.6-1.4 7.4-2 11.4-1.9 16.9.5 34.3 14.1 43.2 33.8 6.4 14.2 7.4 29.8 2.5 41.6-3.4 8-9.1 13.8-16.5 16.7-3.7 1.2-7.5 1.9-11.5 1.8" fill="#006aaf"/><path d="m224.1 541.5c-3-.1-5.7-2-7.7-5.6l-.2-.4c-10.2-28.6 4-68.3 58.6-92.5 23.7-10.5 41.6-19.8 54.8-28.4 21.2-13.8 20.4-34.5 16.7-42.4-1.1-2.4-2.4-5.8-.7-8.3.7-1.1 2.2-2.2 5.1-2.1s6.8 1.4 10.4 2.8c9.4 3.7 31.5 14.2 32.2 32.9.8 21.9-27.8 46.7-85.2 74-54.3 25.8-72.7 59.4-74.6 63.1l-.1.2c-2.9 4.5-6 6.7-9.3 6.7" fill="#ee7a2e"/><path d="m425.5 557.4-2.3-.4c-29.4-8.8-41.5-35.2-42.4-45.9-1.1-13 0-27 16.2-41.2 12.4-10.8 28.8-21.1 44.7-31 26.1-16.2 53.1-33 55.9-49.7 1-5.8-.9-11.4-5.8-17.2-12-14.2-45.7-17-75.6-19.4-31-2.5-57.7-4.7-65.4-17.8-1.5-2.4-1.8-5.1-.9-7.9 3.4-11.7 27.6-24.5 55.4-39.4 32.5-17.3 72.9-39 69.6-56.5-3.6-19-55.7-34.5-155-45.9-26.9-4.6-89.7-37.3-88-51.3.8-6.5 10.4-6.3 13.6-6.2 1.9 0 4.1.2 6.5.5 99.7 11.1 235.3 60.1 245.6 99.4 6 22.7-25.1 41.8-52.4 58.6-16.6 10.2-35.5 21.8-32.5 28.2 2.8 5.8 25.5 9.9 47.6 14 37.1 6.8 83.2 15.2 94.1 38.6 13.1 28.3-24.7 58-64.8 89.6-20.4 16-41.4 32.6-55.8 49.1-10 15.6-6.1 30-1 39.2 1.7 3.1 1.7 6.4 0 9-1.5 2.2-4.3 3.6-7.3 3.6" fill="#009b49"/><path clip-path="url(#a)" d="m554.4 681.8-128-146.6 148.7-129.8 128 146.7z" fill="url(#b)"/><path d="m640.4 514.4c.5 3.5.8 7 .8 10.5v.4 1.1.3c0 2-.1 4.1-.3 6.1v.3.2.2.4c-1.4 13.7-6.5 26.9-14.9 38.4v.1c-.1.1-.2.2-.2.3-.1.1-.2.2-.2.3s-.1.1-.1.2-.1.1-.1.2-.1.1-.2.2c0 0 0 .1-.1.1-5.2 6.8-11.6 12.9-19.2 18-5.3 3.6-10.9 6.4-16.6 8.7-8.3 3.3-17 5.1-25.8 5.7-1.7.1-3.3.2-5 .2h-.2c-.1 0-.2 0-.3 0s-.2 0-.3 0h-.2c-12.5-.1-24.9-2.8-36.2-8.1 9.5 12.6 27 19.3 46.5 19.3 16.9 0 35.2-5 50.9-15.6 20.4-13.7 30.9-35.1 31.4-55.2v-2.8c-.2-10.3-3.2-20.2-8.9-28.3z" fill="#eaedf7"/><path clip-rule="evenodd" d="m605.7 591.6c35.6-23.9 45.8-69.7 24.7-105.3-23.6-10.1-51.6-6.5-84.7 24-19.7 18.1-41 39.2-57.4 59.9l1.2 1.8c26.4 36.1 78.4 45 116.2 19.6" fill="#fff" fill-rule="evenodd"/><path d="m630.2 509.1c-.5 1.3-1.8 1.8-3 1l-22.9-14.7c-1.2-.7-2.3-2.5-2.6-3.9l-5.2-29.8c-.2-1.4.7-2.8 2-3.2l2.8-.8c1.4-.4 3.5-.2 4.7.5 0 0 23.3 12 27.5 41.4z" fill="#ee7a2e"/><path d="m524.2 509c1-1 2.9-1.3 4.2-.8l35.4 13.9c1.3.5 2.3 2.1 2.2 3.5l-1.9 37.5c-.1 1.4-1.1 3.1-2.4 3.7l-27.2 14.2c-1.2.6-3.3.7-4.5.1l-24.3-11.7c-1.3-.6-2.5-2.2-2.7-3.6l-5.1-28.5c-.2-1.4.4-3.3 1.4-4.3z" fill="#e42332"/><path d="m576 596.9 1-2.4 8.4-14.7 2.7-2.8 31.1-19h3.4l1.6 1 1.1 3s-6.1 20.7-47.5 34.3z" fill="#006aaf"/><path d="m408 1111c-207.7 0-332.1-56.6-345.6-63l-.4-.2c-23.1-8.5-35.8-23.6-35.8-42.6l.9-882.7c0-18.8 12.6-34 35.5-42.8l.3-.1c7.9-3.5 37.6-15.8 89.9-27.8 73.7-17 156.9-25.6 247.2-25.6 209.9 0 332.1 48.2 345.4 53.7 23.2 8.6 35.9 23.7 35.9 42.6v882.7c0 18.9-12.6 34.1-35.5 42.8l-.4.2c-8.2 4.2-39 19-91.3 33-73.5 19.8-156.3 29.8-246.1 29.8zm-379.9-105.8c0 18.1 12.3 32.6 34.6 40.8.1 0 .2.1.5.2 13.5 6.4 137.6 62.9 344.8 62.9 35.8 0 220.4-3 336.6-62.6.4-.2.6-.3.6-.3 22.1-8.4 34.3-23 34.3-41v-882.7c0-18.1-12.3-32.5-34.5-40.8-13.5-5.5-135.5-53.6-345-53.6-90.2 0-173.2 8.6-246.8 25.5-52.2 12-81.8 24.2-89.6 27.7l-.4.2c-22.1 8.5-34.3 23-34.3 41z" fill="#009b49"/></svg>